Simulation
nRows=20
nColumns=15
endheader
time  TH_x TH_y TH_z SC_y  SC_z  SC_x  AC_y  AC_z  AC_x  GH_y  GH_z  GH_yy  EL_x  PS_y
1.95  0.000000  0.000000  0.000000  -29.869711390148765  8.782567202537855  37.18960188577852  59.543565379207834  -1.951111557674016  -5.268947345292174  50.300437217021134  59.22953584232154  -41.85406890663654  22.202652909626057  0.000000
1.989  0.000000  0.000000  0.000000  -29.570757412827128  8.448478516474827  36.118437838984015  59.362401915608764  -1.6384721658987695  -5.730816775607485  50.53412088986351  58.279013598301404  -41.22812839993028  22.39949289510286  0.000000
2.028  0.000000  0.000000  0.000000  -29.26271791355701  8.162959956580673  34.175876458842325  59.13220062582577  -0.6303523212819766  -5.7497478299300555  50.83849015514537  57.2573212262028  -40.700697641239444  22.6231537930059  0.000000
2.067  0.000000  0.000000  0.000000  -28.958421190048885  7.928557813662882  30.82776188447751  58.85784292941745  1.4876326123264123  -5.036662328481279  51.1594954907141  56.25093160637938  -40.26034019497541  22.857008416355086  0.000000
2.106  0.000000  0.000000  0.000000  -28.671097788595503  7.626353120705661  26.09125904576853  58.560200702612406  4.641838923321083  -3.640761804853638  51.392533058528024  55.281784393642795  -39.78513672845573  23.068275763108176  0.000000
2.145  0.000000  0.000000  0.000000  -28.412187932317167  7.152694098423511  20.884081389940015  58.25189057873795  8.056563041858432  -2.0486468587881412  51.50383917989526  54.23008529470052  -39.14012144531489  23.217442203309897  0.000000
2.184  0.000000  0.000000  0.000000  -28.156253224885706  6.5422053903786335  16.134799112042977  57.95524663652121  11.010708085588659  -0.7034547531817955  51.51629754281347  52.95815227218103  -38.265335714469856  23.281171914777797  0.000000
2.223  0.000000  0.000000  0.000000  -27.871300778271834  5.882488509972014  12.380692077367133  57.709224215283555  13.097400045227957  0.1641419120225925  51.43906166510531  51.45925335256196  -37.18037776565313  23.28219629099028  0.000000
2.262  0.000000  0.000000  0.000000  -27.576326248181086  5.257068620459128  9.822494449785385  57.57435838947289  14.165772880588845  0.4930533091058262  51.25520550834357  49.82779962819118  -35.969657315743746  23.26502816454177  0.000000
2.301  0.000000  0.000000  0.000000  -27.31301408399184  4.68611652520813  8.289578270226986  57.563651139812634  14.376197376697936  0.3753853256947847  50.94793045112262  48.169852282040104  -34.69351660378876  23.2739577838901  0.000000
2.34  0.000000  0.000000  0.000000  -27.11029873294635  4.141457116797006  7.413504311956416  57.63852465765631  14.031376069384331  -0.028150601387178262  50.50575615842013  46.54807896742444  -33.34707350673863  23.335763924065745  0.000000
2.379  0.000000  0.000000  0.000000  -26.96385544608205  3.6013973607901  6.855797232783473  57.73884239638651  13.390881595998463  -0.5691716598124521  49.91618484063504  44.96419183977282  -31.859514638453515  23.45637203447796  0.000000
2.418  0.000000  0.000000  0.000000  -26.84469768228249  3.057993005308045  6.401982222081821  57.80490689219349  12.61625873850462  -1.1548606815311293  49.16465914489948  43.39265433167834  -30.14084358109868  23.636972557958213  0.000000
2.457  0.000000  0.000000  0.000000  -26.735642685753547  2.5163875318405404  5.953412897710153  57.805538365024724  11.79021008455322  -1.7351368617179554  48.22727601629611  41.80794828382397  -28.12583450763749  23.885106287598845  0.000000
2.496  0.000000  0.000000  0.000000  -26.6421708984192  1.9854741651535872  5.4847917078097845  57.733192937932735  10.950018509497985  -2.2855545667585813  47.081332702511  40.199889740526004  -25.78977620107548  24.209827315319497  0.000000
2.535  0.000000  0.000000  0.000000  -26.58426256727742  1.4748467415895918  5.003523314132868  57.5958414921218  10.113661974314347  -2.7979444681295957  45.70918884808444  38.57351333646537  -23.14064834678971  24.617268340907867  0.000000
2.574  0.000000  0.000000  0.000000  -26.57772731617934  0.993771713418342  4.521512703018299  57.398307392763655  9.297538205951994  -3.269306057072637  44.10830017402762  36.93956705300543  -20.203914529981667  25.10691739966804  0.000000
2.613  0.000000  0.000000  0.000000  -26.61954747111112  0.5530190731267638  4.0454319922603155  57.14912829299249  8.518217095492792  -3.694659024800925  42.28398681437673  35.3052748255722  -17.033438133635567  25.657538294220387  0.000000
2.652  0.000000  0.000000  0.000000  -26.690919446227895  0.15830107341043426  3.576618061292023  56.86441913437828  7.789905923487596  -4.063585179832068  40.24887687199938  33.668348629771465  -13.7163062938636  26.22475037956885  0.000000
2.691  0.000000  0.000000  0.000000  -26.771136999342197  -0.19010311340235014  3.1145352717360506  56.5657481317016  7.124317079337221  -4.368601579343289  38.0276890448246  32.02090853607192  -10.359457630997163  26.75231810067034  0.000000
